<mxfile host="65bd71144e">
    <diagram id="5E4UnOuaWW4XZu5PyqsA" name="第 1 页">
        <mxGraphModel dx="2133" dy="-557" grid="1" gridSize="10" guides="1" tooltips="1" connect="1" arrows="1" fold="1" page="1" pageScale="1" pageWidth="827" pageHeight="1169" math="0" shadow="0">
            <root>
                <mxCell id="0"/>
                <mxCell id="1" parent="0"/>
                <mxCell id="2" value="&lt;div style=&quot;border-color: rgb(0, 0, 0); color: rgb(255, 0, 0); font-family: Helvetica; font-style: normal; font-variant-ligatures: normal; font-variant-caps: normal; font-weight: 400; letter-spacing: normal; orphans: 2; text-align: left; text-indent: 0px; text-transform: none; widows: 2; word-spacing: 0px; -webkit-text-stroke-width: 0px; text-decoration-thickness: initial; text-decoration-style: initial; text-decoration-color: initial; font-size: 12px;&quot;&gt;&lt;/div&gt;&lt;font color=&quot;#ff0000&quot;&gt;&lt;span style=&quot;font-size: 24px;&quot;&gt;&lt;div&gt;1、beforeCreate：在new一个vue实例后，只有一些默认的生命周期钩子和默认事件，其他的东西都还没创建。在beforeCreate生命周期执行的时候，data和methods中的数据都还没有初始化。不能在这个阶段使用data中的数据和methods中的方法&lt;/div&gt;&lt;div&gt;&lt;br&gt;&lt;/div&gt;&lt;div&gt;2、created：data 和 methods都已经被初始化好了，如果要调用 methods 中的方法，或者操作 data 中的数据，最早可以在这个阶段中操作&lt;/div&gt;&lt;div&gt;&lt;br&gt;&lt;/div&gt;&lt;div&gt;3、beforeMount：执行到这个钩子的时候，在内存中已经编译好了模板了，但是还没有挂载到页面中，此时，页面还是旧的&lt;/div&gt;&lt;div&gt;&lt;br&gt;&lt;/div&gt;&lt;div&gt;4、mounted：执行到这个钩子的时候，就表示Vue实例已经初始化完成了。此时组件脱离了创建阶段，进入到了运行阶段。 如果我们想要通过插件操作页面上的DOM节点，最早可以在和这个阶段中进行&lt;/div&gt;&lt;div&gt;&lt;br&gt;&lt;/div&gt;&lt;div&gt;5、beforeUpdate： 当执行这个钩子时，页面中的显示的数据还是旧的，data中的数据是更新后的， 页面还没有和最新的数据保持同步&lt;/div&gt;&lt;div&gt;&lt;br&gt;&lt;/div&gt;&lt;div&gt;6、updated：页面显示的数据和data中的数据已经保持同步了，都是最新的&lt;/div&gt;&lt;div&gt;&lt;br&gt;&lt;/div&gt;&lt;div&gt;7、beforeDestory：Vue实例从运行阶段进入到了销毁阶段，这个时候上所有的 data 和 methods ， 指令， 过滤器 ……都是处于可用状态。还没有真正被销毁&lt;/div&gt;&lt;div&gt;&lt;br&gt;&lt;/div&gt;&lt;div&gt;8、destroyed： 这个时候上所有的 data 和 methods ， 指令， 过滤器 ……都是处于不可用状态。组件已经被销毁了。&lt;/div&gt;&lt;/span&gt;&lt;/font&gt;" style="text;whiteSpace=wrap;html=1;labelBackgroundColor=#FFFF00;" parent="1" vertex="1">
                    <mxGeometry x="-630" y="1230" width="510" height="250" as="geometry"/>
                </mxCell>
            </root>
        </mxGraphModel>
    </diagram>
</mxfile>